<?xml version="1.0" standalone="no"?><!DOCTYPE svg PUBLIC "-//W3C//DTD SVG 1.1//EN" "http://www.w3.org/Graphics/SVG/1.1/DTD/svg11.dtd"><svg t="1719715812711" class="icon" viewBox="0 0 1024 1024" version="1.1" xmlns="http://www.w3.org/2000/svg" p-id="1948" xmlns:xlink="http://www.w3.org/1999/xlink" width="200" height="200"><path d="M512 819.2C405.333333 819.2 311.04 764.586667 256 682.666667 257.28 597.333333 426.666667 550.4 512 550.4 597.333333 550.4 766.72 597.333333 768 682.666667 712.96 764.586667 618.666667 819.2 512 819.2M512 213.333333C582.826667 213.333333 640 270.506667 640 341.333333 640 412.16 582.826667 469.333333 512 469.333333 441.173333 469.333333 384 412.16 384 341.333333 384 270.506667 441.173333 213.333333 512 213.333333M512 85.333333C276.48 85.333333 85.333333 276.48 85.333333 512 85.333333 747.52 276.48 938.666667 512 938.666667 747.52 938.666667 938.666667 747.52 938.666667 512 938.666667 276.053333 746.666667 85.333333 512 85.333333Z" p-id="1949" fill="#dbdbdb"></path></svg>